<?xml version="1.0" encoding="UTF-8"?>
<svg xmlns="http://www.w3.org/2000/svg" xmlns:xlink="http://www.w3.org/1999/xlink" viewBox="0 0 30 30" width="30px" height="30px">
<g id="surface34637162">
<path style=" stroke:none;fill-rule:nonzero;fill:rgb(82.745099%,36.862746%,20.784314%);fill-opacity:1;" d="M 15 1 C 7.269531 1 1 7.269531 1 15 C 1 22.730469 7.269531 29 15 29 C 22.730469 29 29 22.730469 29 15 C 29 7.269531 22.730469 1 15 1 Z M 15 1 "/>
<path style=" stroke:none;fill-rule:nonzero;fill:rgb(100%,100%,100%);fill-opacity:1;" d="M 28.921875 16.480469 C 28.921875 16.460938 28.925781 16.441406 28.929688 16.421875 C 28.925781 16.4375 28.921875 16.460938 28.921875 16.480469 Z M 1.070312 16.414062 C 1.074219 16.441406 1.078125 16.46875 1.082031 16.496094 C 1.078125 16.46875 1.074219 16.441406 1.070312 16.414062 Z M 16.996094 18.710938 L 20.617188 18.710938 L 21.1875 15.03125 L 16.996094 15.03125 L 16.996094 13.019531 C 16.996094 11.488281 17.496094 10.132812 18.925781 10.132812 L 21.222656 10.132812 L 21.222656 6.921875 C 20.820312 6.867188 19.96875 6.746094 18.351562 6.746094 C 14.984375 6.746094 13.007812 8.527344 13.007812 12.582031 L 13.007812 15.03125 L 9.542969 15.03125 L 9.542969 18.710938 L 13.007812 18.710938 L 13.007812 28.632812 C 13.691406 28.734375 14.386719 28.804688 15.101562 28.804688 C 15.746094 28.804688 16.375 28.746094 16.996094 28.660156 Z M 16.996094 18.710938 "/>
<path style=" stroke:none;fill-rule:nonzero;fill:rgb(23.921569%,25.882354%,31.764707%);fill-opacity:1;" d="M 15 2 C 22.167969 2 28 7.832031 28 15 C 28 22.167969 22.167969 28 15 28 C 7.832031 28 2 22.167969 2 15 C 2 7.832031 7.832031 2 15 2 M 15 1 C 7.269531 1 1 7.269531 1 15 C 1 22.730469 7.269531 29 15 29 C 22.730469 29 29 22.730469 29 15 C 29 7.269531 22.730469 1 15 1 Z M 15 1 "/>
</g>
</svg>
