<?xml version="1.0" encoding="UTF-8"?>
<svg xmlns="http://www.w3.org/2000/svg" xmlns:xlink="http://www.w3.org/1999/xlink" viewBox="0 0 80 80" width="80px" height="80px">
<g id="surface18561529">
<path style="fill-rule:nonzero;fill:rgb(0%,30.588236%,16.078432%);fill-opacity:1;stroke-width:1;stroke-linecap:butt;stroke-linejoin:miter;stroke:rgb(100%,100%,100%);stroke-opacity:1;stroke-miterlimit:10;" d="M 38.499998 19.999999 C 38.499998 30.216796 30.216796 38.499998 19.999999 38.499998 C 9.783203 38.499998 1.5 30.216796 1.5 19.999999 C 1.5 9.783203 9.783203 1.5 19.999999 1.5 C 30.216796 1.5 38.499998 9.783203 38.499998 19.999999 Z M 38.499998 19.999999 " transform="matrix(2,0,0,2,0,0)"/>
<path style=" stroke:none;fill-rule:nonzero;fill:rgb(100%,100%,100%);fill-opacity:1;" d="M 64 25.238281 C 62.234375 26.023438 60.003906 26.757812 58 27 C 60.035156 25.792969 63.265625 23.277344 64 21 C 62.097656 22.117188 58.65625 23.3125 56.414062 23.742188 C 54.621094 21.84375 52.066406 21 49.234375 21 C 43.792969 21 40 25.609375 40 31 L 40 35 C 32 35 24.199219 28.90625 19.347656 23 C 18.492188 24.441406 18.011719 26.128906 18.011719 27.914062 C 18.011719 31.550781 21.355469 35.242188 24 37 C 22.386719 36.949219 19.328125 35.71875 18 35 C 18 35.03125 18 35.070312 18 35.113281 C 18 39.847656 21.320312 43.0625 25.824219 43.957031 C 25.003906 44.183594 24 45 20.144531 45 C 21.394531 48.871094 27.691406 50.914062 32 51 C 28.628906 53.613281 22.617188 55 18 55 C 17.203125 55 16.769531 55.042969 16 54.953125 C 20.355469 57.714844 26.441406 59 32 59 C 50.113281 59 60 45.164062 60 32.261719 C 60 31.835938 59.984375 30.414062 59.964844 30 C 61.898438 28.636719 62.683594 27.207031 64 25.238281 "/>
</g>
</svg>
