<?xml version="1.0" encoding="UTF-8"?>
<svg xmlns="http://www.w3.org/2000/svg" xmlns:xlink="http://www.w3.org/1999/xlink" viewBox="0 0 30 30" width="30px" height="30px">
<g id="surface34682440">
<path style=" stroke:none;fill-rule:nonzero;fill:rgb(82.745099%,36.862746%,20.784314%);fill-opacity:1;" d="M 22.5 1.5 L 7.5 1.5 C 4.199219 1.5 1.5 4.199219 1.5 7.5 L 1.5 22.5 C 1.5 25.800781 4.199219 28.5 7.5 28.5 L 22.5 28.5 C 25.800781 28.5 28.5 25.800781 28.5 22.5 L 28.5 7.5 C 28.5 4.199219 25.800781 1.5 22.5 1.5 Z M 22.5 1.5 "/>
<path style=" stroke:none;fill-rule:nonzero;fill:rgb(82.745099%,36.862746%,20.784314%);fill-opacity:1;" d="M 27.898438 5 C 27 2.898438 24.898438 1.5 22.5 1.5 L 18.398438 1.5 C 21.800781 2.101562 25 3.300781 27.898438 5 Z M 27.898438 5 "/>
<path style=" stroke:none;fill-rule:nonzero;fill:rgb(82.745099%,36.862746%,20.784314%);fill-opacity:1;" d="M 1.5 7.5 L 1.5 22.5 C 1.5 25.800781 4.199219 28.5 7.5 28.5 L 22.5 28.5 C 25.800781 28.5 28.5 25.800781 28.5 22.5 L 28.5 8.898438 C 24.101562 5.800781 18.800781 4 13 4 C 8.800781 4 4.800781 5 1.300781 6.699219 C 1.398438 6.898438 1.5 7.199219 1.5 7.5 Z M 1.5 7.5 "/>
<path style=" stroke:none;fill-rule:nonzero;fill:rgb(82.745099%,36.862746%,20.784314%);fill-opacity:1;" d="M 1.5 22.5 C 1.5 25.800781 4.199219 28.5 7.5 28.5 L 22.5 28.5 C 25.800781 28.5 28.5 25.800781 28.5 22.5 L 28.5 12.699219 C 24.300781 9.101562 18.898438 7 13 7 C 8.800781 7 4.898438 8.101562 1.5 9.898438 Z M 1.5 22.5 "/>
<path style=" stroke:none;fill-rule:nonzero;fill:rgb(82.745099%,36.862746%,20.784314%);fill-opacity:1;" d="M 1.5 22.5 C 1.5 25.800781 4.199219 28.5 7.5 28.5 L 22.5 28.5 C 25.800781 28.5 28.5 25.800781 28.5 22.5 L 28.5 16.898438 C 24.699219 12.699219 19.101562 10 13 10 C 8.800781 10 4.800781 11.300781 1.5 13.398438 Z M 1.5 22.5 "/>
<path style=" stroke:none;fill-rule:nonzero;fill:rgb(82.745099%,36.862746%,20.784314%);fill-opacity:1;" d="M 1.5 22.5 C 1.5 25.800781 4.199219 28.5 7.5 28.5 L 22.5 28.5 C 25.800781 28.5 28.5 25.800781 28.5 22.5 L 28.5 21.898438 C 25.398438 16.601562 19.601562 13 13 13 C 8.601562 13 4.601562 14.601562 1.5 17.199219 Z M 1.5 22.5 "/>
<path style=" stroke:none;fill-rule:nonzero;fill:rgb(82.745099%,36.862746%,20.784314%);fill-opacity:1;" d="M 1.5 22.5 C 1.5 25.800781 4.199219 28.5 7.5 28.5 L 22.5 28.5 C 24.398438 28.5 26.101562 27.601562 27.199219 26.199219 C 25.199219 20.300781 19.601562 16 13 16 C 8.398438 16 4.300781 18.101562 1.5 21.398438 Z M 1.5 22.5 "/>
<path style=" stroke:none;fill-rule:nonzero;fill:rgb(82.745099%,36.862746%,20.784314%);fill-opacity:1;" d="M 7.5 28.5 L 22.5 28.5 C 23.300781 28.5 24 28.398438 24.601562 28.101562 C 23.300781 22.898438 18.601562 19 13 19 C 8.300781 19 4.300781 21.699219 2.300781 25.5 C 3.398438 27.300781 5.300781 28.5 7.5 28.5 Z M 7.5 28.5 "/>
<path style=" stroke:none;fill-rule:nonzero;fill:rgb(82.745099%,36.862746%,20.784314%);fill-opacity:1;" d="M 7.5 28.5 L 21.601562 28.5 C 20.601562 24.699219 17.101562 22 13 22 C 9.199219 22 5.898438 24.398438 4.601562 27.800781 C 5.5 28.199219 6.5 28.5 7.5 28.5 Z M 7.5 28.5 "/>
<path style=" stroke:none;fill-rule:nonzero;fill:rgb(82.745099%,36.862746%,20.784314%);fill-opacity:1;" d="M 18.398438 28.5 C 17.5 26.398438 15.398438 25 13 25 C 10.601562 25 8.5 26.398438 7.601562 28.5 Z M 18.398438 28.5 "/>
<path style=" stroke:none;fill-rule:nonzero;fill:rgb(23.921569%,25.882354%,31.764707%);fill-opacity:1;" d="M 23 2 C 25.800781 2 28 4.199219 28 7 L 28 23 C 28 25.800781 25.800781 28 23 28 L 7 28 C 4.199219 28 2 25.800781 2 23 L 2 7 C 2 4.199219 4.199219 2 7 2 L 23 2 M 23 1 L 7 1 C 3.699219 1 1 3.699219 1 7 L 1 23 C 1 26.300781 3.699219 29 7 29 L 23 29 C 26.300781 29 29 26.300781 29 23 L 29 7 C 29 3.699219 26.300781 1 23 1 Z M 23 1 "/>
<path style=" stroke:none;fill-rule:nonzero;fill:rgb(100%,100%,100%);fill-opacity:1;" d="M 19 25 L 11 25 C 7.699219 25 5 22.300781 5 19 L 5 11 C 5 7.699219 7.699219 5 11 5 L 19 5 C 22.300781 5 25 7.699219 25 11 L 25 19 C 25 22.300781 22.300781 25 19 25 Z M 11 7 C 8.800781 7 7 8.800781 7 11 L 7 19 C 7 21.199219 8.800781 23 11 23 L 19 23 C 21.199219 23 23 21.199219 23 19 L 23 11 C 23 8.800781 21.199219 7 19 7 Z M 11 7 "/>
<path style=" stroke:none;fill-rule:nonzero;fill:rgb(100%,100%,100%);fill-opacity:1;" d="M 15 20 C 12.199219 20 10 17.800781 10 15 C 10 12.199219 12.199219 10 15 10 C 17.800781 10 20 12.199219 20 15 C 20 17.800781 17.800781 20 15 20 Z M 15 12 C 13.300781 12 12 13.300781 12 15 C 12 16.699219 13.300781 18 15 18 C 16.699219 18 18 16.699219 18 15 C 18 13.300781 16.699219 12 15 12 Z M 20 9 C 19.449219 9 19 9.449219 19 10 C 19 10.550781 19.449219 11 20 11 C 20.550781 11 21 10.550781 21 10 C 21 9.449219 20.550781 9 20 9 Z M 20 9 "/>
</g>
</svg>
