<?xml version="1.0" encoding="UTF-8"?>
<svg xmlns="http://www.w3.org/2000/svg" xmlns:xlink="http://www.w3.org/1999/xlink" width="128px" height="150px" viewBox="0 0 48 56" version="1.1">
<g id="surface1">
<path style=" stroke:none;fill-rule:nonzero;fill:rgb(100%,100%,100%);fill-opacity:1;" d="M 22.960938 10.957031 C 12.3125 11.503906 3.84375 20.40625 3.84375 31.304688 C 3.84375 34.980469 4.808594 38.429688 6.496094 41.40625 L 4.453125 45.371094 C 1.652344 41.402344 0.00390625 36.546875 0.00390625 31.304688 C 0.00390625 17.910156 10.75 7.050781 24 7.050781 C 24.191406 7.050781 24.378906 7.054688 24.566406 7.058594 L 28.03125 0 L 35.4375 0 L 35.4375 9.980469 C 42.917969 14.085938 47.996094 22.09375 47.996094 31.304688 C 47.996094 44.695312 37.253906 55.554688 24 55.554688 C 19.957031 55.554688 16.144531 54.542969 12.800781 52.757812 L 14.488281 49.269531 C 17.324219 50.804688 20.5625 51.675781 24 51.675781 C 35.132812 51.675781 44.15625 42.554688 44.15625 31.304688 C 44.15625 24.273438 40.632812 18.070312 35.269531 14.410156 L 35.269531 33.691406 L 28.503906 27.296875 L 28.503906 12.683594 L 20.148438 32.515625 L 28.503906 32.515625 L 28.503906 29.332031 L 36.335938 36.691406 L 28.242188 42.898438 L 28.242188 39.613281 L 17.222656 39.613281 L 9.964844 56 L 0.980469 55.824219 Z M 22.960938 10.957031 "/>
<path style=" stroke:none;fill-rule:nonzero;fill:rgb(100%,100%,100%);fill-opacity:1;" d="M 35.257812 45.15625 L 28.234375 45.15625 L 35.257812 39.144531 Z M 35.257812 45.15625 "/>
</g>
</svg>
