<svg xmlns="http://www.w3.org/2000/svg" height="800" width="1200" id="svg2" version="1.1" viewBox="-75 -125 650 750"><defs id="defs4"><style id="style4156"/></defs><g id="layer1" transform="translate(-122.047 -276.181)"><g id="g4215"><g transform="matrix(.5 0 0 .5 122.047 276.181)" id="g4169"><path id="rect4160" fill="#00aa46" d="M0 0h1000v1000H0z"/></g><path id="path3347" d="M483.843 353.393c-52.744.287-72.497 3.059-99.76 19.404-39.165 23.479-62.902 61.034-65.139 114.919l.094 58.252c.095 32.425-4.903 45.326-46.633 47.697l.685 51.963c63.823 1.852 92.719-31.538 98.794-81.01l-.13-62.281c-1.782-70.958 51.809-97.815 100.02-95.796l-.306 51.36c-49.771.492-46.016 34.22-46.25 65.991l-.187 41.667c-4.575 53.429-17.245 74.732-48.081 101.747-41.258 36.146-94.598 31.463-116.898 31.366" fill="none" fill-rule="evenodd" stroke="#fff" stroke-width="24.575" stroke-linecap="butt" stroke-linejoin="miter" stroke-miterlimit="4" stroke-dasharray="none" stroke-opacity="1"/></g></g></svg>