<?xml version="1.0" encoding="UTF-8"?>
<svg xmlns="http://www.w3.org/2000/svg" xmlns:xlink="http://www.w3.org/1999/xlink" viewBox="0 0 30 30" width="30px" height="30px">
<g id="surface34610416">
<path style="fill-rule:nonzero;fill:rgb(82.745099%,36.862746%,20.784314%);fill-opacity:1;stroke-width:1;stroke-linecap:butt;stroke-linejoin:miter;stroke:rgb(23.921569%,25.882354%,31.764707%);stroke-opacity:1;stroke-miterlimit:10;" d="M 28.500018 15.000009 C 28.500018 22.457045 22.457045 28.500018 15.000009 28.500018 C 7.542973 28.500018 1.500001 22.457045 1.500001 15.000009 C 1.500001 7.542973 7.542973 1.500001 15.000009 1.500001 C 22.457045 1.500001 28.500018 7.542973 28.500018 15.000009 Z M 28.500018 15.000009 " transform="matrix(0.999999,0,0,0.999999,0,0)"/>
<path style=" stroke:none;fill-rule:nonzero;fill:rgb(100%,100%,100%);fill-opacity:1;" d="M 23.726562 9.632812 C 23.085938 9.917969 22.273438 10.183594 21.546875 10.273438 C 22.285156 9.835938 23.460938 8.917969 23.726562 8.089844 C 23.035156 8.496094 21.785156 8.933594 20.96875 9.089844 C 20.316406 8.398438 19.386719 8.089844 18.355469 8.089844 C 16.378906 8.089844 15 9.765625 15 11.726562 L 15 13.183594 C 12.089844 13.183594 9.253906 10.964844 7.488281 8.816406 C 7.179688 9.34375 7.003906 9.957031 7.003906 10.605469 C 7.003906 11.929688 8.21875 13.269531 9.179688 13.910156 C 8.59375 13.890625 7.484375 13.441406 7 13.183594 C 7 13.195312 7 13.207031 7 13.222656 C 7 14.945312 8.207031 16.113281 9.84375 16.4375 C 9.546875 16.519531 9.183594 16.816406 7.78125 16.816406 C 8.234375 18.226562 10.523438 18.96875 12.089844 19 C 10.863281 19.949219 8.679688 20.453125 7 20.453125 C 6.710938 20.453125 6.554688 20.472656 6.273438 20.4375 C 7.855469 21.441406 10.070312 21.910156 12.089844 21.910156 C 18.679688 21.910156 22.273438 16.878906 22.273438 12.183594 C 22.273438 12.03125 22.269531 11.515625 22.261719 11.363281 C 22.964844 10.867188 23.25 10.347656 23.726562 9.632812 "/>
</g>
</svg>
